<?xml version="1.0" encoding="UTF-8"?>
<svg width="512" height="512" viewBox="0 0 512 512" fill="none" xmlns="http://www.w3.org/2000/svg">
  <path d="M256 50C141.145 50 48 143.145 48 258C48 372.855 141.145 466 256 466C370.855 466 464 372.855 464 258C464 143.145 370.855 50 256 50ZM256 90C348.785 90 424 165.215 424 258C424 350.785 348.785 426 256 426C163.215 426 88 350.785 88 258C88 165.215 163.215 90 256 90Z" fill="#00B4D8"/>
  <path fill-rule="evenodd" clip-rule="evenodd" d="M256 130C185.307 130 128 187.307 128 258C128 328.693 185.307 386 256 386C326.693 386 384 328.693 384 258C384 187.307 326.693 130 256 130ZM168 258C168 209.399 207.399 170 256 170C304.601 170 344 209.399 344 258C344 306.601 304.601 346 256 346C207.399 346 168 306.601 168 258Z" fill="#00B4D8"/>
  <path d="M256 210C229.49 210 208 231.49 208 258C208 284.51 229.49 306 256 306C282.51 306 304 284.51 304 258C304 231.49 282.51 210 256 210Z" fill="#00B4D8"/>
</svg> 